<?xml version="1.0" encoding="iso-8859-1"?>
<!-- Generator: Adobe Illustrator 19.0.0, SVG Export Plug-In . SVG Version: 6.00 Build 0)  -->
<svg version="1.1" id="Layer_1" xmlns="http://www.w3.org/2000/svg" xmlns:xlink="http://www.w3.org/1999/xlink" x="0px" y="0px"
	 viewBox="0 0 512.002 512.002" style="enable-background:new 0 0 512.002 512.002;" xml:space="preserve">
<path style="fill:#D8143A;" d="M466.133,45.931c-0.003-0.002-0.007-0.005-0.01-0.008C436.511,16.31,397.141,0,355.267,0
	c-41.889,0-81.274,16.318-110.905,45.947l-99.183,99.183c-4.643,4.643-7.254,10.939-7.252,17.505
	c-0.002,6.566,2.608,12.862,7.249,17.503c0.003,0.003,0.003,0.003,0.003,0.003l93.372,93.37l93.355,93.354
	c4.836,4.836,11.172,7.252,17.507,7.252c6.335,0,12.672-2.416,17.505-7.252l99.183-99.182
	C527.232,206.551,527.247,107.079,466.133,45.931z"/>
<path style="fill:#DEDEE0;" d="M349.412,374.118c-6.336,0-12.672-2.416-17.507-7.252l-93.355-93.354l-93.372-93.37
	c0,0,0,0-0.003-0.003c-4.641-4.643-7.251-10.939-7.249-17.503c-0.002-6.567,2.608-12.864,7.252-17.505l-99.187,99.182
	C16.368,273.938,0.049,313.32,0.043,355.204c-0.007,41.887,16.307,81.262,45.923,110.869c0.003,0.005,0.008,0.01,0.013,0.015
	c29.604,29.606,68.968,45.911,110.84,45.914c0.005,0,0.005,0,0.012,0c41.882,0,81.271-16.32,110.9-45.949l99.187-99.185
	C362.085,371.702,355.748,374.118,349.412,374.118z"/>
<path style="fill:#D6D5D8;" d="M145.178,180.144c0,0,0,0-0.003-0.003c-4.641-4.643-7.251-10.939-7.249-17.503
	c-0.002-6.567,2.608-12.864,7.252-17.505l-99.187,99.182C16.368,273.94,0.049,313.322,0.043,355.206
	c-0.007,41.887,16.307,81.262,45.923,110.869c0.003,0.005,0.008,0.01,0.013,0.015L238.55,273.517L145.178,180.144z"/>
<path style="fill:#B8002B;" d="M145.175,180.14c0.003,0.003,0.003,0.003,0.003,0.003l93.372,93.37L466.133,45.931
	c-0.003-0.002-0.007-0.005-0.01-0.008C436.511,16.31,397.141,0,355.267,0c-41.889,0-81.274,16.318-110.905,45.947l-99.183,99.183
	c-4.643,4.643-7.254,10.939-7.252,17.505C137.925,169.201,140.534,175.498,145.175,180.14z"/>
<g>
</g>
<g>
</g>
<g>
</g>
<g>
</g>
<g>
</g>
<g>
</g>
<g>
</g>
<g>
</g>
<g>
</g>
<g>
</g>
<g>
</g>
<g>
</g>
<g>
</g>
<g>
</g>
<g>
</g>
</svg>
